<svg xmlns="http://www.w3.org/2000/svg" viewBox="0 0 225 225"><path d="M 110,120 109,121 108,121 107,122 106,122 105,123 105,124 103,126 103,133 105,135 105,136 106,137 107,137 108,138 109,138 110,139 114,139 115,138 116,138 117,137 118,137 119,136 119,135 121,133 121,126 119,124 119,123 118,122 117,122 116,121 115,121 114,120 Z" fill="black"></path><path d="M 0,75 0,224 224,224 224,75 218,75 217,76 189,76 186,79 186,80 187,79 189,81 189,84 188,85 189,86 193,86 195,88 195,92 194,93 194,94 193,95 163,95 162,96 160,96 159,97 158,97 157,98 156,98 152,102 152,106 153,107 153,111 154,112 154,115 155,116 155,157 154,158 154,159 153,160 152,160 151,161 149,161 148,160 147,160 145,158 145,126 144,125 144,120 143,119 143,117 142,116 142,114 140,112 140,111 138,109 138,108 133,103 132,103 132,107 127,112 126,112 125,113 122,113 121,114 118,114 125,114 127,116 127,143 126,144 125,144 124,145 100,145 99,144 98,144 97,143 97,116 99,114 106,114 103,114 102,113 99,113 98,112 97,112 96,111 95,111 94,110 94,109 92,107 92,103 91,103 88,106 88,107 86,109 86,110 85,111 85,112 84,113 84,114 83,115 83,116 82,117 82,118 81,119 81,122 80,123 80,127 79,128 79,158 77,160 76,160 75,161 73,161 72,160 71,160 70,159 70,158 69,157 69,116 70,115 70,111 71,110 71,106 72,105 72,103 67,98 66,98 64,96 63,96 62,95 31,95 30,94 30,93 29,92 29,88 31,86 35,86 35,81 37,79 38,80 38,79 35,76 7,76 6,75 Z" fill="black"></path><path d="M 0,0 0,73 1,72 4,72 5,71 11,71 12,70 21,70 22,69 35,69 36,68 36,67 39,64 41,64 42,63 45,63 46,64 47,64 48,65 49,65 51,67 51,68 85,68 86,69 87,69 88,70 87,71 85,71 84,72 79,72 78,73 71,73 70,74 59,74 58,75 52,75 52,76 49,79 49,80 50,79 51,80 51,85 52,86 54,86 55,85 62,85 63,84 67,84 68,83 71,83 72,82 75,82 76,81 79,81 80,80 83,80 84,79 86,79 87,78 90,78 91,77 95,77 96,76 100,76 101,75 123,75 124,76 128,76 129,77 133,77 134,78 136,78 137,79 140,79 141,80 144,80 145,81 147,81 148,82 151,82 152,83 155,83 156,84 160,84 161,85 168,85 169,86 172,86 173,85 173,80 174,79 175,80 175,79 172,76 172,75 166,75 165,74 153,74 152,73 145,73 144,72 140,72 139,71 137,71 136,70 137,69 138,69 139,68 173,68 173,67 175,65 176,65 177,64 178,64 179,63 182,63 183,64 184,64 185,65 186,65 188,67 188,68 189,69 202,69 203,70 212,70 213,71 219,71 220,72 223,72 224,73 224,0 Z" fill="black"></path></svg>